<svg width="202" height="30" viewBox="0 0 202 30" fill="none" xmlns="http://www.w3.org/2000/svg">
<rect x="0.5" y="0.5" width="201" height="29" stroke="#1BBC65"/>
<path opacity="0.54" fill-rule="evenodd" clip-rule="evenodd" d="M28.502 17H27.708L27.432 16.726C28.407 15.589 29 14.115 29 12.5C29 8.91 26.09 6 22.5 6C18.91 6 16 8.91 16 12.5C16 16.09 18.91 19 22.5 19C24.115 19 25.588 18.408 26.725 17.434L27.001 17.708V18.5L31.999 23.491L33.49 22L28.502 17ZM22.5 17C20.014 17 18 14.986 18 12.5C18 10.015 20.014 8 22.5 8C24.985 8 27 10.015 27 12.5C27 14.986 24.985 17 22.5 17Z" fill="#1BBC65"/>
<path opacity="0.3" d="M54.2637 16.3506C54.2637 17.7979 53.9326 18.9639 53.2705 19.8486C52.6084 20.7334 51.7119 21.1758 50.5811 21.1758C49.4268 21.1758 48.5186 20.8096 47.8564 20.0771V24.6562H46.2305V11.4902H47.7158L47.7949 12.5449C48.457 11.7246 49.377 11.3145 50.5547 11.3145C51.6973 11.3145 52.5996 11.7451 53.2617 12.6064C53.9297 13.4678 54.2637 14.666 54.2637 16.2012V16.3506ZM52.6377 16.166C52.6377 15.0938 52.4092 14.2471 51.9521 13.626C51.4951 13.0049 50.8682 12.6943 50.0713 12.6943C49.0869 12.6943 48.3486 13.1309 47.8564 14.0039V18.5479C48.3428 19.415 49.0869 19.8486 50.0889 19.8486C50.8682 19.8486 51.4863 19.541 51.9434 18.9258C52.4062 18.3047 52.6377 17.3848 52.6377 16.166ZM60.2842 21.1758C58.9951 21.1758 57.9463 20.7539 57.1377 19.9102C56.3291 19.0605 55.9248 17.9268 55.9248 16.5088V16.21C55.9248 15.2666 56.1035 14.4258 56.4609 13.6875C56.8242 12.9434 57.3281 12.3633 57.9727 11.9473C58.623 11.5254 59.3262 11.3145 60.082 11.3145C61.3184 11.3145 62.2793 11.7217 62.9648 12.5361C63.6504 13.3506 63.9932 14.5166 63.9932 16.0342V16.7109H57.5508C57.5742 17.6484 57.8467 18.4072 58.3682 18.9873C58.8955 19.5615 59.5635 19.8486 60.3721 19.8486C60.9463 19.8486 61.4326 19.7314 61.8311 19.4971C62.2295 19.2627 62.5781 18.9521 62.877 18.5654L63.8701 19.3389C63.0732 20.5635 61.8779 21.1758 60.2842 21.1758ZM60.082 12.6504C59.4258 12.6504 58.875 12.8906 58.4297 13.3711C57.9844 13.8457 57.709 14.5137 57.6035 15.375H62.3672V15.252C62.3203 14.4258 62.0977 13.7871 61.6992 13.3359C61.3008 12.8789 60.7617 12.6504 60.082 12.6504ZM71.4199 18.4775C71.4199 18.0381 71.2529 17.6982 70.9189 17.458C70.5908 17.2119 70.0137 17.001 69.1875 16.8252C68.3672 16.6494 67.7139 16.4385 67.2275 16.1924C66.7471 15.9463 66.3896 15.6533 66.1553 15.3135C65.9268 14.9736 65.8125 14.5693 65.8125 14.1006C65.8125 13.3213 66.1406 12.6621 66.7969 12.123C67.459 11.584 68.3027 11.3145 69.3281 11.3145C70.4062 11.3145 71.2793 11.5928 71.9473 12.1494C72.6211 12.7061 72.958 13.418 72.958 14.2852H71.3232C71.3232 13.8398 71.1328 13.4561 70.752 13.1338C70.377 12.8115 69.9023 12.6504 69.3281 12.6504C68.7363 12.6504 68.2734 12.7793 67.9395 13.0371C67.6055 13.2949 67.4385 13.6318 67.4385 14.0479C67.4385 14.4404 67.5938 14.7363 67.9043 14.9355C68.2148 15.1348 68.7744 15.3252 69.583 15.5068C70.3975 15.6885 71.0566 15.9053 71.5605 16.1572C72.0645 16.4092 72.4365 16.7139 72.6768 17.0713C72.9229 17.4229 73.0459 17.8535 73.0459 18.3633C73.0459 19.2129 72.7061 19.8955 72.0264 20.4111C71.3467 20.9209 70.4648 21.1758 69.3809 21.1758C68.6191 21.1758 67.9453 21.041 67.3594 20.7715C66.7734 20.502 66.3135 20.127 65.9795 19.6465C65.6514 19.1602 65.4873 18.6357 65.4873 18.0732H67.1133C67.1426 18.6182 67.3594 19.0518 67.7637 19.374C68.1738 19.6904 68.7129 19.8486 69.3809 19.8486C69.9961 19.8486 70.4883 19.7256 70.8574 19.4795C71.2324 19.2275 71.4199 18.8936 71.4199 18.4775ZM74.7686 16.166C74.7686 14.6719 75.1113 13.4912 75.7969 12.624C76.4824 11.751 77.4023 11.3145 78.5566 11.3145C79.6816 11.3145 80.5693 11.6924 81.2197 12.4482L81.29 11.4902H82.7842V24.6562H81.1582V20.1211C80.502 20.8242 79.6289 21.1758 78.5391 21.1758C77.3906 21.1758 76.4736 20.7305 75.7881 19.8398C75.1084 18.9434 74.7686 17.7568 74.7686 16.2803V16.166ZM76.3945 16.3506C76.3945 17.4404 76.623 18.2959 77.0801 18.917C77.543 19.5381 78.1641 19.8486 78.9434 19.8486C79.9102 19.8486 80.6484 19.4209 81.1582 18.5654V13.9072C80.6426 13.0693 79.9102 12.6504 78.9609 12.6504C78.1758 12.6504 77.5518 12.9639 77.0889 13.5908C76.626 14.2119 76.3945 15.1318 76.3945 16.3506ZM91.2656 20.0596C90.6328 20.8037 89.7041 21.1758 88.4795 21.1758C87.4658 21.1758 86.6924 20.8828 86.1592 20.2969C85.6318 19.7051 85.3652 18.832 85.3594 17.6777V11.4902H86.9854V17.6338C86.9854 19.0752 87.5713 19.7959 88.7432 19.7959C89.9854 19.7959 90.8115 19.333 91.2217 18.4072V11.4902H92.8477V21H91.3008L91.2656 20.0596ZM97.0928 21H95.4668V11.4902H97.0928V21ZM95.335 8.96777C95.335 8.7041 95.4141 8.48145 95.5723 8.2998C95.7363 8.11816 95.9766 8.02734 96.293 8.02734C96.6094 8.02734 96.8496 8.11816 97.0137 8.2998C97.1777 8.48145 97.2598 8.7041 97.2598 8.96777C97.2598 9.23145 97.1777 9.45117 97.0137 9.62695C96.8496 9.80273 96.6094 9.89062 96.293 9.89062C95.9766 9.89062 95.7363 9.80273 95.5723 9.62695C95.4141 9.45117 95.335 9.23145 95.335 8.96777ZM105.24 18.4775C105.24 18.0381 105.073 17.6982 104.739 17.458C104.411 17.2119 103.834 17.001 103.008 16.8252C102.188 16.6494 101.534 16.4385 101.048 16.1924C100.567 15.9463 100.21 15.6533 99.9756 15.3135C99.7471 14.9736 99.6328 14.5693 99.6328 14.1006C99.6328 13.3213 99.9609 12.6621 100.617 12.123C101.279 11.584 102.123 11.3145 103.148 11.3145C104.227 11.3145 105.1 11.5928 105.768 12.1494C106.441 12.7061 106.778 13.418 106.778 14.2852H105.144C105.144 13.8398 104.953 13.4561 104.572 13.1338C104.197 12.8115 103.723 12.6504 103.148 12.6504C102.557 12.6504 102.094 12.7793 101.76 13.0371C101.426 13.2949 101.259 13.6318 101.259 14.0479C101.259 14.4404 101.414 14.7363 101.725 14.9355C102.035 15.1348 102.595 15.3252 103.403 15.5068C104.218 15.6885 104.877 15.9053 105.381 16.1572C105.885 16.4092 106.257 16.7139 106.497 17.0713C106.743 17.4229 106.866 17.8535 106.866 18.3633C106.866 19.2129 106.526 19.8955 105.847 20.4111C105.167 20.9209 104.285 21.1758 103.201 21.1758C102.439 21.1758 101.766 21.041 101.18 20.7715C100.594 20.502 100.134 20.127 99.7998 19.6465C99.4717 19.1602 99.3076 18.6357 99.3076 18.0732H100.934C100.963 18.6182 101.18 19.0518 101.584 19.374C101.994 19.6904 102.533 19.8486 103.201 19.8486C103.816 19.8486 104.309 19.7256 104.678 19.4795C105.053 19.2275 105.24 18.8936 105.24 18.4775ZM114.855 21C114.762 20.8125 114.686 20.4785 114.627 19.998C113.871 20.7832 112.969 21.1758 111.92 21.1758C110.982 21.1758 110.212 20.9121 109.608 20.3848C109.011 19.8516 108.712 19.1777 108.712 18.3633C108.712 17.373 109.087 16.6055 109.837 16.0605C110.593 15.5098 111.653 15.2344 113.019 15.2344H114.601V14.4873C114.601 13.9189 114.431 13.4678 114.091 13.1338C113.751 12.7939 113.25 12.624 112.588 12.624C112.008 12.624 111.521 12.7705 111.129 13.0635C110.736 13.3564 110.54 13.7109 110.54 14.127H108.905C108.905 13.6523 109.072 13.1953 109.406 12.7559C109.746 12.3105 110.203 11.959 110.777 11.7012C111.357 11.4434 111.993 11.3145 112.685 11.3145C113.78 11.3145 114.639 11.5898 115.26 12.1406C115.881 12.6855 116.203 13.4385 116.227 14.3994V18.7764C116.227 19.6494 116.338 20.3438 116.561 20.8594V21H114.855ZM112.157 19.7607C112.667 19.7607 113.15 19.6289 113.607 19.3652C114.064 19.1016 114.396 18.7588 114.601 18.3369V16.3857H113.326C111.334 16.3857 110.338 16.9688 110.338 18.1348C110.338 18.6445 110.508 19.043 110.848 19.3301C111.188 19.6172 111.624 19.7607 112.157 19.7607ZM123.372 12.9492C123.126 12.9082 122.859 12.8877 122.572 12.8877C121.506 12.8877 120.782 13.3418 120.401 14.25V21H118.775V11.4902H120.357L120.384 12.5889C120.917 11.7393 121.673 11.3145 122.651 11.3145C122.968 11.3145 123.208 11.3555 123.372 11.4375V12.9492Z" fill="#858585"/>
</svg>
